<svg xmlns="http://www.w3.org/2000/svg" xmlns:xlink="http://www.w3.org/1999/xlink" width="2000" zoomAndPan="magnify" viewBox="0 0 1500 1499.999933" height="2000" preserveAspectRatio="xMidYMid meet" version="1.0"><defs><g/><clipPath id="2b065ef54c"><path d="M 966 331 L 1500 331 L 1500 1000 L 966 1000 Z M 966 331 " clip-rule="nonzero"/></clipPath><clipPath id="91472322ce"><rect x="0" width="1500" y="0" height="1274"/></clipPath></defs><g transform="matrix(1, 0, 0, 1, 0, 113)"><g clip-path="url(#91472322ce)"><g fill="#ffffff" fill-opacity="1"><g transform="translate(0.00003335, 999.230166)"><g><path d="M 366.890625 0 L 206.0625 -524.0625 L 201.953125 -524.0625 C 207.734375 -417.457031 210.625 -346.332031 210.625 -310.6875 L 210.625 0 L 84.0625 0 L 84.0625 -667.984375 L 276.875 -667.984375 L 434.96875 -157.171875 L 437.71875 -157.171875 L 605.390625 -667.984375 L 798.203125 -667.984375 L 798.203125 0 L 666.15625 0 L 666.15625 -316.171875 C 666.15625 -331.097656 666.382812 -348.304688 666.84375 -367.796875 C 667.300781 -387.296875 669.359375 -439.082031 673.015625 -523.15625 L 668.90625 -523.15625 L 496.65625 0 Z M 366.890625 0 "/></g></g></g><g clip-path="url(#2b065ef54c)"><g fill="#5170ff" fill-opacity="1"><g transform="translate(882.280229, 999.230166)"><g><path d="M 225.703125 -371.46875 L 271.40625 -371.46875 C 316.175781 -371.46875 349.222656 -378.925781 370.546875 -393.84375 C 391.867188 -408.769531 402.53125 -432.226562 402.53125 -464.21875 C 402.53125 -495.894531 391.640625 -518.429688 369.859375 -531.828125 C 348.078125 -545.234375 314.34375 -551.9375 268.65625 -551.9375 L 225.703125 -551.9375 Z M 225.703125 -256.328125 L 225.703125 0 L 84.0625 0 L 84.0625 -667.984375 L 278.703125 -667.984375 C 369.472656 -667.984375 436.640625 -651.457031 480.203125 -618.40625 C 523.765625 -585.363281 545.546875 -535.1875 545.546875 -467.875 C 545.546875 -428.570312 534.726562 -393.613281 513.09375 -363 C 491.46875 -332.394531 460.859375 -308.410156 421.265625 -291.046875 C 521.785156 -140.878906 587.273438 -43.863281 617.734375 0 L 460.5625 0 L 301.09375 -256.328125 Z M 225.703125 -256.328125 "/></g></g></g></g></g></g></svg>